<svg width="100" height="100" viewBox="0 0 100 100" fill="none" xmlns="http://www.w3.org/2000/svg">
<g clip-path="url(#clip0_5_37)">
<path d="M5.52466 15.2916H10.4154V3.56016H7.10627V10.2873H7.07804L4.89598 3.56016H0.00537109V15.2916H3.3126V8.51978H3.34232L5.52466 15.2916ZM23.9762 15.2916H28.8672V3.56016H25.5597V10.2873H25.53L23.348 3.56016H18.4574V15.2916H21.766V8.51978H21.7948L23.9762 15.2916ZM55.7483 15.2916H60.64V3.56016H57.3317V10.2873H57.3021L55.1205 3.56016H50.2295V15.2916H53.5371V8.51978H53.5664L55.7483 15.2916ZM12.4136 3.56016H16.4928V15.2916H12.4136V3.56016ZM32.6427 6.74702H30.0503V3.56016H39.322V6.74702H36.7207V15.2916H32.6427V6.74702ZM40.5266 3.55708H48.5945V6.6597H44.5417V7.88671H48.2732V10.8942H44.5417V12.2108H48.7234V15.2882H40.5266V3.55708Z" fill="#7B7692"/>
<path d="M47.3546 27.9155L38.7061 44.5766L47.3546 40.9992L55.6097 44.4112L57.8204 41.733V23.5346L47.3546 27.9155Z" fill="#0222A9"/>
<path d="M74.2229 87.7753L58.6021 65.7694V94.8644L47.3545 100V50.3004L58.6021 45.6508L74.2229 69.7511V39.1098L84.8451 34.6879V82.9597L74.2229 87.7753Z" fill="#011DA9"/>
<path d="M20.4863 87.7753L30.4523 83.0124L20.4863 62.1266V87.7753Z" fill="#0222A9"/>
<path d="M31.1086 34.6879L36.108 45.6495L38.7059 44.5766L47.3545 27.9155L36.8881 23.5218L31.1086 34.6879ZM55.6096 44.4112L63.604 34.6879L74.2229 39.1098V69.7511L58.6021 45.6508L55.6096 44.4112Z" fill="#069330"/>
<path d="M20.4863 39.1098L9.86426 34.6879V82.9597L20.4863 87.7753V62.1266L36.1081 94.8644L47.3546 100V50.3004L36.1081 45.6495V70.8801L20.4863 39.1098Z" fill="#069330"/>
<path d="M36.1081 45.6495V70.8801L20.4863 39.1098L31.1088 34.6879L36.1081 45.6495ZM74.223 87.7753L58.6022 65.7694V77.7923L61.792 82.6226L74.223 87.7753Z" fill="#FE2015"/>
<path d="M58.6021 45.6495L47.3546 50.3004L36.108 45.6495L47.3546 40.9992L58.6021 45.6495ZM63.6 34.6879L74.223 30.2768L84.8451 34.6879L74.223 39.1098L63.6 34.6879ZM9.86426 34.6879L20.4863 30.2768L31.1087 34.6879L20.4863 39.1098L9.86426 34.6879ZM57.8204 23.5346L47.3546 19.1717L36.8882 23.5218L47.3546 27.9155L57.8204 23.5346Z" fill="#FFC001"/>
<path d="M62.3984 3.55811H67.2304C71.3563 3.55811 72.6594 6.07806 72.6594 9.55032C72.6594 13.0958 70.6371 15.2935 67.4747 15.2935H62.3986L62.3984 3.55811ZM66.3888 12.627H66.7824C67.4474 12.627 67.8819 12.4072 68.1396 11.9384C68.4111 11.4549 68.4382 10.5614 68.4382 9.41846C68.4382 8.29049 68.4111 7.39664 68.1396 6.91316C67.8819 6.44433 67.4474 6.22457 66.7824 6.22457H66.3888V12.627ZM79.052 3.25044C82.608 3.25044 84.3724 5.77039 84.3724 9.41846C84.3724 13.0812 82.608 15.6011 79.052 15.6011C75.5095 15.6011 73.7315 13.0812 73.7315 9.41846C73.7315 5.77039 75.5097 3.25044 79.052 3.25044ZM79.052 12.627C79.6899 12.627 80.1514 12.29 80.1514 9.41846C80.1514 6.62014 79.7172 6.22457 79.052 6.22457C78.4005 6.22457 77.9526 6.62014 77.9526 9.41846C77.9527 12.29 78.4278 12.627 79.052 12.627ZM86.2862 12.8175C85.5668 12.8175 84.9968 13.4328 84.9968 14.2093C84.9968 14.9711 85.5668 15.6011 86.2862 15.6011C86.9919 15.6011 87.5756 14.9711 87.5756 14.2093C87.5756 13.4328 86.9919 12.8175 86.2862 12.8175ZM86.2862 15.3521C85.6891 15.3521 85.2141 14.8393 85.2141 14.2093C85.2141 13.5793 85.6891 13.0665 86.2862 13.0665C86.8698 13.0665 87.3448 13.5793 87.3448 14.2093C87.3448 14.8393 86.8698 15.3521 86.2862 15.3521Z" fill="#0124A6"/>
<path d="M86.069 14.9711H85.7705V13.4475H86.3676C86.612 13.4475 86.8697 13.5355 86.8697 13.843C86.8697 14.0335 86.7477 14.1653 86.5712 14.2093C86.8018 14.2386 86.8018 14.3998 86.829 14.6049C86.8427 14.7074 86.8561 14.8832 86.9105 14.9711H86.5712C86.5441 14.8393 86.5304 14.6928 86.517 14.5609C86.517 14.4729 86.4898 14.3558 86.3948 14.3558H86.069V14.9711ZM86.069 14.1067H86.3269C86.4627 14.1067 86.5442 14.0335 86.5442 13.887C86.5442 13.7553 86.4627 13.6965 86.3269 13.6965H86.069V14.1067ZM5.52466 15.2916H10.4154V3.56016H7.10627V10.2873H7.07804L4.89598 3.56016H0.00537109V15.2916H3.3126V8.51978H3.34232L5.52466 15.2916ZM23.9762 15.2916H28.8672V3.56016H25.5597V10.2873H25.5299L23.348 3.56016H18.4574V15.2916H21.766V8.51978H21.7948L23.9762 15.2916ZM55.7483 15.2916H60.64V3.56016H57.3317V10.2873H57.3021L55.1205 3.56016H50.2295V15.2916H53.5371V8.51978H53.5664L55.7483 15.2916ZM12.4136 3.56016H16.4928V15.2916H12.4136V3.56016ZM32.6427 6.74702H30.0503V3.56016H39.322V6.74702H36.7207V15.2916H32.6427V6.74702ZM40.5266 3.55708H48.5945V6.6597H44.5417V7.88671H48.2732V10.8942H44.5417V12.2108H48.7234V15.2882H40.5266V3.55708Z" fill="#0124A6"/>
<path d="M91.6747 2.00511C91.4575 1.97581 91.2404 1.99046 90.9553 2.00511C89.2316 2.09302 88.5394 2.88417 88.295 3.77787H88.3358C88.77 3.36765 89.2995 3.17719 90.0053 3.17719C91.3761 3.17719 92.6112 4.2467 92.6112 6.26852C92.6112 8.18793 91.2539 9.68232 89.4079 9.68232C86.992 9.68232 85.9333 7.68965 85.9333 5.55077C85.9333 3.80732 86.5034 2.34223 87.4399 1.38992C88.3358 0.496221 89.4895 0.0420438 90.9009 0.0128885C91.2674 -0.0164132 91.4981 0.0128885 91.6745 0.0275394V2.00511H91.6747ZM89.3809 7.79221C89.9375 7.79221 90.2768 7.17687 90.2768 6.38573C90.2768 5.72644 89.9917 5.00854 89.2452 5.00854C88.7839 5.00854 88.4308 5.31621 88.2951 5.69714C88.241 5.81434 88.2273 5.97536 88.2273 6.25387C88.2681 7.00106 88.6074 7.79221 89.3673 7.79221H89.3809ZM96.8867 9.52101V7.42594H93.2628V5.74109L96.1672 0.144453H99.0717V5.49202H99.9947V7.42594H99.0717V9.52101H96.8867ZM96.8867 5.49202V3.88043C96.8867 3.27974 96.9137 2.6644 96.9408 2.00511H96.9001C96.6287 2.64975 96.3979 3.25044 96.0858 3.89508L95.38 5.46272L95.3664 5.49202H96.8867Z" fill="#FF2D1E"/>
</g>
<defs>
<clipPath id="clip0_5_37">
<rect width="100" height="100" fill="white"/>
</clipPath>
</defs>
</svg>
